<?xml version="1.0" encoding="UTF-8" standalone="no"?>
<svg width="800" height="600" xmlns="http://www.w3.org/2000/svg">
  <!-- 标题 -->
  <text x="400" y="40" font-family="Arial" font-size="24" text-anchor="middle" font-weight="bold">本地大模型集成方案</text>
  
  <!-- 整体架构 -->
  <rect x="50" y="70" width="700" height="500" fill="#f8f9fa" stroke="#dee2e6" stroke-width="2" rx="10" ry="10"/>
  
  <!-- 系统组件 -->
  <g transform="translate(100, 100)">
    <!-- 前端应用 -->
    <rect x="0" y="0" width="200" height="80" fill="#e6f7ff" stroke="#91d5ff" stroke-width="1" rx="5" ry="5"/>
    <text x="100" y="30" font-family="Arial" font-size="16" text-anchor="middle" font-weight="bold">前端应用</text>
    <text x="100" y="50" font-family="Arial" font-size="12" text-anchor="middle">React + Chart.js</text>
    <text x="100" y="70" font-family="Arial" font-size="12" text-anchor="middle">支部数据展示系统</text>
    
    <!-- 后端服务 -->
    <rect x="0" y="150" width="200" height="80" fill="#f6ffed" stroke="#b7eb8f" stroke-width="1" rx="5" ry="5"/>
    <text x="100" y="180" font-family="Arial" font-size="16" text-anchor="middle" font-weight="bold">后端服务</text>
    <text x="100" y="200" font-family="Arial" font-size="12" text-anchor="middle">Express.js</text>
    <text x="100" y="220" font-family="Arial" font-size="12" text-anchor="middle">数据处理与API</text>
    
    <!-- 本地大模型 -->
    <rect x="0" y="300" width="200" height="80" fill="#fff2e8" stroke="#ffbb96" stroke-width="1" rx="5" ry="5"/>
    <text x="100" y="330" font-family="Arial" font-size="16" text-anchor="middle" font-weight="bold">本地大模型</text>
    <text x="100" y="350" font-family="Arial" font-size="12" text-anchor="middle">Ollama</text>
    <text x="100" y="370" font-family="Arial" font-size="12" text-anchor="middle">AI分析与推理</text>
    
    <!-- 数据存储 -->
    <rect x="400" y="150" width="200" height="80" fill="#f9f0ff" stroke="#d3adf7" stroke-width="1" rx="5" ry="5"/>
    <text x="500" y="180" font-family="Arial" font-size="16" text-anchor="middle" font-weight="bold">数据存储</text>
    <text x="500" y="200" font-family="Arial" font-size="12" text-anchor="middle">Excel文件</text>
    <text x="500" y="220" font-family="Arial" font-size="12" text-anchor="middle">结构化数据</text>
    
    <!-- 连接线 -->
    <line x1="100" y1="80" x2="100" y2="150" stroke="#1890ff" stroke-width="2"/>
    <line x1="100" y1="230" x2="100" y2="300" stroke="#1890ff" stroke-width="2"/>
    <line x1="200" y1="190" x2="400" y2="190" stroke="#1890ff" stroke-width="2"/>
    
    <polygon points="100,145 95,135 105,135" fill="#1890ff"/>
    <polygon points="100,295 95,285 105,285" fill="#1890ff"/>
    <polygon points="395,190 385,185 385,195" fill="#1890ff"/>
  </g>
  
  <!-- 集成流程 -->
  <g transform="translate(100, 420)">
    <text x="0" y="0" font-family="Arial" font-size="18" font-weight="bold">AI集成流程</text>
    
    <rect x="0" y="20" width="600" height="120" fill="white" stroke="#e2e8f0" stroke-width="1" rx="5" ry="5"/>
    
    <!-- 步骤1 -->
    <circle cx="50" cy="50" r="20" fill="#e6f7ff" stroke="#1890ff" stroke-width="1"/>
    <text x="50" y="55" font-family="Arial" font-size="14" text-anchor="middle" font-weight="bold">1</text>
    <text x="80" y="55" font-family="Arial" font-size="14" text-anchor="start">数据准备：将支部数据转换为适合大模型处理的格式</text>
    
    <!-- 步骤2 -->
    <circle cx="50" cy="90" r="20" fill="#e6f7ff" stroke="#1890ff" stroke-width="1"/>
    <text x="50" y="95" font-family="Arial" font-size="14" text-anchor="middle" font-weight="bold">2</text>
    <text x="80" y="95" font-family="Arial" font-size="14" text-anchor="start">API调用：通过HTTP请求调用本地Ollama API</text>
    
    <!-- 步骤3 -->
    <circle cx="50" cy="130" r="20" fill="#e6f7ff" stroke="#1890ff" stroke-width="1"/>
    <text x="50" y="135" font-family="Arial" font-size="14" text-anchor="middle" font-weight="bold">3</text>
    <text x="80" y="135" font-family="Arial" font-size="14" text-anchor="start">结果处理：解析AI分析结果并在前端展示</text>
  </g>
  
  <!-- API示例 -->
  <g transform="translate(400, 100)">
    <rect x="0" y="0" width="250" height="120" fill="#f0f9ff" stroke="#90cdf4" stroke-width="1" rx="5" ry="5"/>
    <text x="125" y="20" font-family="Arial" font-size="14" text-anchor="middle" font-weight="bold">Ollama API调用示例</text>
    
    <rect x="10" y="30" width="230" height="80" fill="#edf2f7" stroke="#cbd5e0" stroke-width="1" rx="3" ry="3"/>
    <text x="20" y="50" font-family="Arial" font-size="12" font-family="monospace">POST http://localhost:11434/api/generate</text>
    <text x="20" y="70" font-family="Arial" font-size="12" font-family="monospace">{"model": "llama3", "prompt": "分析</text>
    <text x="20" y="90" font-family="Arial" font-size="12" font-family="monospace">支部数据并提供改进建议", "stream": false}</text>
  </g>
  
  <!-- AI功能列表 -->
  <g transform="translate(400, 240)">
    <rect x="0" y="0" width="250" height="140" fill="#f0fff4" stroke="#9ae6b4" stroke-width="1" rx="5" ry="5"/>
    <text x="125" y="20" font-family="Arial" font-size="14" text-anchor="middle" font-weight="bold">AI智能分析功能</text>
    
    <text x="20" y="45" font-family="Arial" font-size="12">• 支部综合能力评估</text>
    <text x="20" y="70" font-family="Arial" font-size="12">• 优势与不足分析</text>
    <text x="20" y="95" font-family="Arial" font-size="12">• 改进建议生成</text>
    <text x="20" y="120" font-family="Arial" font-size="12">• 支部发展趋势预测</text>
    <text x="20" y="145" font-family="Arial" font-size="12">• 同类支部对比分析</text>
  </g>
</svg>
