<?xml version="1.0" encoding="UTF-8" standalone="no"?>
<svg width="800" height="600" xmlns="http://www.w3.org/2000/svg">
  <!-- 标题 -->
  <text x="400" y="40" font-family="Arial" font-size="24" text-anchor="middle" font-weight="bold">党支部综合能力画像数学模型</text>
  
  <!-- 主公式 -->
  <text x="400" y="80" font-family="Arial" font-size="18" text-anchor="middle">
    综合得分 = Σ(Wi × Si)
  </text>
  <text x="400" y="110" font-family="Arial" font-size="14" text-anchor="middle">
    其中：Wi 为各维度权重，Si 为各维度得分，且 Σ(Wi) = 1
  </text>
  
  <!-- 五个维度及其权重 -->
  <g transform="translate(100, 150)">
    <text x="0" y="0" font-family="Arial" font-size="16" font-weight="bold">维度权重分配：</text>
    <text x="20" y="30" font-family="Arial" font-size="14">W1 (组织建设能力) = 0.25</text>
    <text x="20" y="60" font-family="Arial" font-size="14">W2 (思想政治工作) = 0.20</text>
    <text x="20" y="90" font-family="Arial" font-size="14">W3 (业务工作能力) = 0.25</text>
    <text x="20" y="120" font-family="Arial" font-size="14">W4 (群众工作能力) = 0.15</text>
    <text x="20" y="150" font-family="Arial" font-size="14">W5 (党风廉政建设) = 0.15</text>
  </g>
  
  <!-- 各维度得分计算 -->
  <g transform="translate(100, 330)">
    <text x="0" y="0" font-family="Arial" font-size="16" font-weight="bold">各维度得分计算：</text>
    <text x="20" y="30" font-family="Arial" font-size="14">Si = Σ(Iij × Wij) / 100</text>
    <text x="40" y="60" font-family="Arial" font-size="14">其中：Iij 为维度i下指标j的得分(0-100)</text>
    <text x="40" y="90" font-family="Arial" font-size="14">Wij 为维度i下指标j的权重，且 Σ(Wij) = 100</text>
  </g>
  
  <!-- 标签生成规则 -->
  <g transform="translate(100, 450)">
    <text x="0" y="0" font-family="Arial" font-size="16" font-weight="bold">标签生成规则：</text>
    <text x="20" y="30" font-family="Arial" font-size="14">正向标签：当维度得分 Si ≥ 0.8 时生成</text>
    <text x="20" y="60" font-family="Arial" font-size="14">反向标签：当维度得分 Si ≤ 0.6 时生成</text>
  </g>
  
  <!-- 雷达图示意 -->
  <g transform="translate(550, 250)">
    <polygon points="0,-100 95,-31 59,81 -59,81 -95,-31" 
             fill="rgba(255,99,132,0.2)" stroke="rgba(255,99,132,1)" stroke-width="2"/>
    <line x1="0" y1="0" x2="0" y2="-120" stroke="#666" stroke-width="1"/>
    <line x1="0" y1="0" x2="114" y2="-37" stroke="#666" stroke-width="1"/>
    <line x1="0" y1="0" x2="71" y2="97" stroke="#666" stroke-width="1"/>
    <line x1="0" y1="0" x2="-71" y2="97" stroke="#666" stroke-width="1"/>
    <line x1="0" y1="0" x2="-114" y2="-37" stroke="#666" stroke-width="1"/>
    
    <text x="0" y="-130" font-family="Arial" font-size="12" text-anchor="middle">组织建设</text>
    <text x="124" y="-37" font-family="Arial" font-size="12" text-anchor="start">思想政治</text>
    <text x="81" y="107" font-family="Arial" font-size="12" text-anchor="start">业务工作</text>
    <text x="-81" y="107" font-family="Arial" font-size="12" text-anchor="end">群众工作</text>
    <text x="-124" y="-37" font-family="Arial" font-size="12" text-anchor="end">党风廉政</text>
  </g>
</svg>
