<?xml version="1.0" encoding="UTF-8" standalone="no"?>
<svg width="800" height="1000" xmlns="http://www.w3.org/2000/svg">
  <!-- 标题 -->
  <text x="400" y="40" font-family="Arial" font-size="24" text-anchor="middle" font-weight="bold">标签与维度分数对应关系</text>
  
  <!-- 组织建设能力 -->
  <g transform="translate(50, 80)">
    <rect x="0" y="0" width="700" height="160" fill="#f0f9ff" stroke="#90cdf4" stroke-width="1" rx="5" ry="5"/>
    <text x="350" y="30" font-family="Arial" font-size="18" text-anchor="middle" font-weight="bold">组织建设能力</text>
    
    <!-- 正向标签 -->
    <g transform="translate(20, 50)">
      <text x="0" y="0" font-family="Arial" font-size="16" font-weight="bold">正向标签 (≥80分)</text>
      
      <rect x="10" y="20" width="80" height="30" rx="15" ry="15" fill="#ebf8ff" stroke="#4299e1" stroke-width="1"/>
      <text x="50" y="40" font-family="Arial" font-size="14" text-anchor="middle">组织规范</text>
      <text x="50" y="70" font-family="Arial" font-size="12" text-anchor="middle">组织生活规范性≥85</text>
      
      <rect x="150" y="20" width="80" height="30" rx="15" ry="15" fill="#ebf8ff" stroke="#4299e1" stroke-width="1"/>
      <text x="190" y="40" font-family="Arial" font-size="14" text-anchor="middle">制度完善</text>
      <text x="190" y="70" font-family="Arial" font-size="12" text-anchor="middle">制度建设完善度≥85</text>
      
      <rect x="290" y="20" width="80" height="30" rx="15" ry="15" fill="#ebf8ff" stroke="#4299e1" stroke-width="1"/>
      <text x="330" y="40" font-family="Arial" font-size="14" text-anchor="middle">班子强</text>
      <text x="330" y="70" font-family="Arial" font-size="12" text-anchor="middle">支部班子建设≥85</text>
    </g>
    
    <!-- 反向标签 -->
    <g transform="translate(20, 100)">
      <text x="0" y="0" font-family="Arial" font-size="16" font-weight="bold">反向标签 (≤60分)</text>
      
      <rect x="10" y="20" width="80" height="30" rx="15" ry="15" fill="#fff5f5" stroke="#fc8181" stroke-width="1"/>
      <text x="50" y="40" font-family="Arial" font-size="14" text-anchor="middle">组织松散</text>
      <text x="50" y="70" font-family="Arial" font-size="12" text-anchor="middle">组织生活规范性≤60</text>
      
      <rect x="150" y="20" width="80" height="30" rx="15" ry="15" fill="#fff5f5" stroke="#fc8181" stroke-width="1"/>
      <text x="190" y="40" font-family="Arial" font-size="14" text-anchor="middle">制度缺</text>
      <text x="190" y="70" font-family="Arial" font-size="12" text-anchor="middle">制度建设完善度≤60</text>
      
      <rect x="290" y="20" width="80" height="30" rx="15" ry="15" fill="#fff5f5" stroke="#fc8181" stroke-width="1"/>
      <text x="330" y="40" font-family="Arial" font-size="14" text-anchor="middle">班子弱</text>
      <text x="330" y="70" font-family="Arial" font-size="12" text-anchor="middle">支部班子建设≤60</text>
    </g>
  </g>
  
  <!-- 思想政治工作 -->
  <g transform="translate(50, 260)">
    <rect x="0" y="0" width="700" height="160" fill="#e6fffa" stroke="#81e6d9" stroke-width="1" rx="5" ry="5"/>
    <text x="350" y="30" font-family="Arial" font-size="18" text-anchor="middle" font-weight="bold">思想政治工作</text>
    
    <!-- 正向标签 -->
    <g transform="translate(20, 50)">
      <text x="0" y="0" font-family="Arial" font-size="16" font-weight="bold">正向标签 (≥80分)</text>
      
      <rect x="10" y="20" width="80" height="30" rx="15" ry="15" fill="#e6fffa" stroke="#38b2ac" stroke-width="1"/>
      <text x="50" y="40" font-family="Arial" font-size="14" text-anchor="middle">学习深</text>
      <text x="50" y="70" font-family="Arial" font-size="12" text-anchor="middle">理论学习深度≥85</text>
      
      <rect x="150" y="20" width="80" height="30" rx="15" ry="15" fill="#e6fffa" stroke="#38b2ac" stroke-width="1"/>
      <text x="190" y="40" font-family="Arial" font-size="14" text-anchor="middle">政治强</text>
      <text x="190" y="70" font-family="Arial" font-size="12" text-anchor="middle">政治素质提升≥85</text>
      
      <rect x="290" y="20" width="80" height="30" rx="15" ry="15" fill="#e6fffa" stroke="#38b2ac" stroke-width="1"/>
      <text x="330" y="40" font-family="Arial" font-size="14" text-anchor="middle">引领好</text>
      <text x="330" y="70" font-family="Arial" font-size="12" text-anchor="middle">思想引领有效性≥85</text>
    </g>
    
    <!-- 反向标签 -->
    <g transform="translate(20, 100)">
      <text x="0" y="0" font-family="Arial" font-size="16" font-weight="bold">反向标签 (≤60分)</text>
      
      <rect x="10" y="20" width="80" height="30" rx="15" ry="15" fill="#fff5f5" stroke="#fc8181" stroke-width="1"/>
      <text x="50" y="40" font-family="Arial" font-size="14" text-anchor="middle">学习浅</text>
      <text x="50" y="70" font-family="Arial" font-size="12" text-anchor="middle">理论学习深度≤60</text>
      
      <rect x="150" y="20" width="80" height="30" rx="15" ry="15" fill="#fff5f5" stroke="#fc8181" stroke-width="1"/>
      <text x="190" y="40" font-family="Arial" font-size="14" text-anchor="middle">政治弱</text>
      <text x="190" y="70" font-family="Arial" font-size="12" text-anchor="middle">政治素质提升≤60</text>
      
      <rect x="290" y="20" width="80" height="30" rx="15" ry="15" fill="#fff5f5" stroke="#fc8181" stroke-width="1"/>
      <text x="330" y="40" font-family="Arial" font-size="14" text-anchor="middle">引领差</text>
      <text x="330" y="70" font-family="Arial" font-size="12" text-anchor="middle">思想引领有效性≤60</text>
    </g>
  </g>
  
  <!-- 业务工作能力 -->
  <g transform="translate(50, 440)">
    <rect x="0" y="0" width="700" height="160" fill="#fffaf0" stroke="#fbd38d" stroke-width="1" rx="5" ry="5"/>
    <text x="350" y="30" font-family="Arial" font-size="18" text-anchor="middle" font-weight="bold">业务工作能力</text>
    
    <!-- 正向标签 -->
    <g transform="translate(20, 50)">
      <text x="0" y="0" font-family="Arial" font-size="16" font-weight="bold">正向标签 (≥80分)</text>
      
      <rect x="10" y="20" width="80" height="30" rx="15" ry="15" fill="#fffaf0" stroke="#ed8936" stroke-width="1"/>
      <text x="50" y="40" font-family="Arial" font-size="14" text-anchor="middle">业绩优</text>
      <text x="50" y="70" font-family="Arial" font-size="12" text-anchor="middle">工作完成质量≥85</text>
      
      <rect x="150" y="20" width="80" height="30" rx="15" ry="15" fill="#fffaf0" stroke="#ed8936" stroke-width="1"/>
      <text x="190" y="40" font-family="Arial" font-size="14" text-anchor="middle">创新强</text>
      <text x="190" y="70" font-family="Arial" font-size="12" text-anchor="middle">创新能力≥85</text>
      
      <rect x="290" y="20" width="80" height="30" rx="15" ry="15" fill="#fffaf0" stroke="#ed8936" stroke-width="1"/>
      <text x="330" y="40" font-family="Arial" font-size="14" text-anchor="middle">专业精</text>
      <text x="330" y="70" font-family="Arial" font-size="12" text-anchor="middle">专业水平≥85</text>
    </g>
    
    <!-- 反向标签 -->
    <g transform="translate(20, 100)">
      <text x="0" y="0" font-family="Arial" font-size="16" font-weight="bold">反向标签 (≤60分)</text>
      
      <rect x="10" y="20" width="80" height="30" rx="15" ry="15" fill="#fff5f5" stroke="#fc8181" stroke-width="1"/>
      <text x="50" y="40" font-family="Arial" font-size="14" text-anchor="middle">业绩差</text>
      <text x="50" y="70" font-family="Arial" font-size="12" text-anchor="middle">工作完成质量≤60</text>
      
      <rect x="150" y="20" width="80" height="30" rx="15" ry="15" fill="#fff5f5" stroke="#fc8181" stroke-width="1"/>
      <text x="190" y="40" font-family="Arial" font-size="14" text-anchor="middle">创新少</text>
      <text x="190" y="70" font-family="Arial" font-size="12" text-anchor="middle">创新能力≤60</text>
      
      <rect x="290" y="20" width="80" height="30" rx="15" ry="15" fill="#fff5f5" stroke="#fc8181" stroke-width="1"/>
      <text x="330" y="40" font-family="Arial" font-size="14" text-anchor="middle">专业弱</text>
      <text x="330" y="70" font-family="Arial" font-size="12" text-anchor="middle">专业水平≤60</text>
    </g>
  </g>
  
  <!-- 群众工作能力 -->
  <g transform="translate(50, 620)">
    <rect x="0" y="0" width="700" height="160" fill="#f0fff4" stroke="#9ae6b4" stroke-width="1" rx="5" ry="5"/>
    <text x="350" y="30" font-family="Arial" font-size="18" text-anchor="middle" font-weight="bold">群众工作能力</text>
    
    <!-- 正向标签 -->
    <g transform="translate(20, 50)">
      <text x="0" y="0" font-family="Arial" font-size="16" font-weight="bold">正向标签 (≥80分)</text>
      
      <rect x="10" y="20" width="80" height="30" rx="15" ry="15" fill="#f0fff4" stroke="#48bb78" stroke-width="1"/>
      <text x="50" y="40" font-family="Arial" font-size="14" text-anchor="middle">服务优</text>
      <text x="50" y="70" font-family="Arial" font-size="12" text-anchor="middle">服务群众质量≥85</text>
      
      <rect x="150" y="20" width="80" height="30" rx="15" ry="15" fill="#f0fff4" stroke="#48bb78" stroke-width="1"/>
      <text x="190" y="40" font-family="Arial" font-size="14" text-anchor="middle">联系广</text>
      <text x="190" y="70" font-family="Arial" font-size="12" text-anchor="middle">联系群众广度≥85</text>
      
      <rect x="290" y="20" width="80" height="30" rx="15" ry="15" fill="#f0fff4" stroke="#48bb78" stroke-width="1"/>
      <text x="330" y="40" font-family="Arial" font-size="14" text-anchor="middle">解难题</text>
      <text x="330" y="70" font-family="Arial" font-size="12" text-anchor="middle">解决问题能力≥85</text>
    </g>
    
    <!-- 反向标签 -->
    <g transform="translate(20, 100)">
      <text x="0" y="0" font-family="Arial" font-size="16" font-weight="bold">反向标签 (≤60分)</text>
      
      <rect x="10" y="20" width="80" height="30" rx="15" ry="15" fill="#fff5f5" stroke="#fc8181" stroke-width="1"/>
      <text x="50" y="40" font-family="Arial" font-size="14" text-anchor="middle">服务差</text>
      <text x="50" y="70" font-family="Arial" font-size="12" text-anchor="middle">服务群众质量≤60</text>
      
      <rect x="150" y="20" width="80" height="30" rx="15" ry="15" fill="#fff5f5" stroke="#fc8181" stroke-width="1"/>
      <text x="190" y="40" font-family="Arial" font-size="14" text-anchor="middle">联系少</text>
      <text x="190" y="70" font-family="Arial" font-size="12" text-anchor="middle">联系群众广度≤60</text>
      
      <rect x="290" y="20" width="80" height="30" rx="15" ry="15" fill="#fff5f5" stroke="#fc8181" stroke-width="1"/>
      <text x="330" y="40" font-family="Arial" font-size="14" text-anchor="middle">难题多</text>
      <text x="330" y="70" font-family="Arial" font-size="12" text-anchor="middle">解决问题能力≤60</text>
    </g>
  </g>
  
  <!-- 党风廉政建设 -->
  <g transform="translate(50, 800)">
    <rect x="0" y="0" width="700" height="160" fill="#fff5f5" stroke="#feb2b2" stroke-width="1" rx="5" ry="5"/>
    <text x="350" y="30" font-family="Arial" font-size="18" text-anchor="middle" font-weight="bold">党风廉政建设</text>
    
    <!-- 正向标签 -->
    <g transform="translate(20, 50)">
      <text x="0" y="0" font-family="Arial" font-size="16" font-weight="bold">正向标签 (≥80分)</text>
      
      <rect x="10" y="20" width="80" height="30" rx="15" ry="15" fill="#fff5f5" stroke="#f56565" stroke-width="1"/>
      <text x="50" y="40" font-family="Arial" font-size="14" text-anchor="middle">纪律严</text>
      <text x="50" y="70" font-family="Arial" font-size="12" text-anchor="middle">纪律作风表现≥85</text>
      
      <rect x="150" y="20" width="80" height="30" rx="15" ry="15" fill="#fff5f5" stroke="#f56565" stroke-width="1"/>
      <text x="190" y="40" font-family="Arial" font-size="14" text-anchor="middle">廉洁好</text>
      <text x="190" y="70" font-family="Arial" font-size="12" text-anchor="middle">廉洁自律情况≥85</text>
      
      <rect x="290" y="20" width="80" height="30" rx="15" ry="15" fill="#fff5f5" stroke="#f56565" stroke-width="1"/>
      <text x="330" y="40" font-family="Arial" font-size="14" text-anchor="middle">监督实</text>
      <text x="330" y="70" font-family="Arial" font-size="12" text-anchor="middle">监督执行力度≥85</text>
    </g>
    
    <!-- 反向标签 -->
    <g transform="translate(20, 100)">
      <text x="0" y="0" font-family="Arial" font-size="16" font-weight="bold">反向标签 (≤60分)</text>
      
      <rect x="10" y="20" width="80" height="30" rx="15" ry="15" fill="#fff5f5" stroke="#fc8181" stroke-width="1"/>
      <text x="50" y="40" font-family="Arial" font-size="14" text-anchor="middle">纪律松</text>
      <text x="50" y="70" font-family="Arial" font-size="12" text-anchor="middle">纪律作风表现≤60</text>
      
      <rect x="150" y="20" width="80" height="30" rx="15" ry="15" fill="#fff5f5" stroke="#fc8181" stroke-width="1"/>
      <text x="190" y="40" font-family="Arial" font-size="14" text-anchor="middle">廉洁差</text>
      <text x="190" y="70" font-family="Arial" font-size="12" text-anchor="middle">廉洁自律情况≤60</text>
      
      <rect x="290" y="20" width="80" height="30" rx="15" ry="15" fill="#fff5f5" stroke="#fc8181" stroke-width="1"/>
      <text x="330" y="40" font-family="Arial" font-size="14" text-anchor="middle">监督弱</text>
      <text x="330" y="70" font-family="Arial" font-size="12" text-anchor="middle">监督执行力度≤60</text>
    </g>
  </g>
</svg>
