<?xml version="1.0" encoding="UTF-8" standalone="no"?>
<svg width="800" height="800" xmlns="http://www.w3.org/2000/svg">
  <!-- 标题 -->
  <text x="400" y="40" font-family="Arial" font-size="24" text-anchor="middle" font-weight="bold">党支部标签选择数学模型</text>
  
  <!-- 标签选择流程 -->
  <g transform="translate(50, 80)">
    <rect x="0" y="0" width="700" height="300" fill="#f8f9fa" stroke="#dee2e6" stroke-width="1" rx="5" ry="5"/>
    <text x="350" y="30" font-family="Arial" font-size="18" text-anchor="middle" font-weight="bold">标签选择流程</text>
    
    <!-- 流程图 -->
    <g transform="translate(50, 60)">
      <!-- 步骤1 -->
      <rect x="0" y="0" width="600" height="50" fill="#e6f7ff" stroke="#91d5ff" stroke-width="1" rx="5" ry="5"/>
      <text x="300" y="30" font-family="Arial" font-size="16" text-anchor="middle">1. 计算各维度得分</text>
      
      <!-- 箭头 -->
      <line x1="300" y1="50" x2="300" y2="70" stroke="#1890ff" stroke-width="2"/>
      <polygon points="300,70 295,60 305,60" fill="#1890ff"/>
      
      <!-- 步骤2 -->
      <rect x="0" y="70" width="600" height="50" fill="#e6f7ff" stroke="#91d5ff" stroke-width="1" rx="5" ry="5"/>
      <text x="300" y="100" font-family="Arial" font-size="16" text-anchor="middle">2. 根据得分生成候选标签池</text>
      
      <!-- 箭头 -->
      <line x1="300" y1="120" x2="300" y2="140" stroke="#1890ff" stroke-width="2"/>
      <polygon points="300,140 295,130 305,130" fill="#1890ff"/>
      
      <!-- 步骤3 -->
      <rect x="0" y="140" width="600" height="50" fill="#e6f7ff" stroke="#91d5ff" stroke-width="1" rx="5" ry="5"/>
      <text x="300" y="170" font-family="Arial" font-size="16" text-anchor="middle">3. 计算每个标签的权重得分</text>
      
      <!-- 箭头 -->
      <line x1="300" y1="190" x2="300" y2="210" stroke="#1890ff" stroke-width="2"/>
      <polygon points="300,210 295,200 305,200" fill="#1890ff"/>
      
      <!-- 步骤4 -->
      <rect x="0" y="210" width="600" height="50" fill="#e6f7ff" stroke="#91d5ff" stroke-width="1" rx="5" ry="5"/>
      <text x="300" y="240" font-family="Arial" font-size="16" text-anchor="middle">4. 选择权重得分最高的2个标签展示</text>
    </g>
  </g>
  
  <!-- 标签权重计算模型 -->
  <g transform="translate(50, 400)">
    <rect x="0" y="0" width="700" height="350" fill="#f8f9fa" stroke="#dee2e6" stroke-width="1" rx="5" ry="5"/>
    <text x="350" y="30" font-family="Arial" font-size="18" text-anchor="middle" font-weight="bold">标签权重计算模型</text>
    
    <!-- 公式 -->
    <g transform="translate(50, 60)">
      <text x="0" y="0" font-family="Arial" font-size="16" font-weight="bold">标签权重计算公式：</text>
      <text x="20" y="30" font-family="Arial" font-size="16">W(标签) = α × |S - T| + β × I + γ × R</text>
      
      <text x="20" y="70" font-family="Arial" font-size="14" font-weight="bold">其中：</text>
      <text x="40" y="100" font-family="Arial" font-size="14">W(标签) = 标签的权重得分</text>
      <text x="40" y="130" font-family="Arial" font-size="14">S = 该维度的实际得分</text>
      <text x="40" y="160" font-family="Arial" font-size="14">T = 标准阈值（正向标签为85分，反向标签为60分）</text>
      <text x="40" y="190" font-family="Arial" font-size="14">|S - T| = 得分与阈值的绝对差值</text>
      <text x="40" y="220" font-family="Arial" font-size="14">I = 该维度的重要性系数（组织建设:0.25, 思想政治:0.20, 业务工作:0.25, 群众工作:0.15, 党风廉政:0.15）</text>
      <text x="40" y="250" font-family="Arial" font-size="14">R = 标签的代表性系数（正向标签:1.2, 反向标签:1.0）</text>
      <text x="40" y="280" font-family="Arial" font-size="14">α, β, γ = 权重系数（α=0.4, β=0.3, γ=0.3）</text>
    </g>
  </g>
  
  <!-- 标签选择示例 -->
  <rect x="50" y="770" width="700" height="20" fill="#f7fafc" stroke="#e2e8f0" stroke-width="1" rx="5" ry="5"/>
  <text x="400" y="785" font-family="Arial" font-size="14" text-anchor="middle">注：优先选择1个正向标签和1个反向标签，若无则选择权重最高的2个标签</text>
</svg>
